<svg width="277" height="106" viewBox="0 0 277 106" fill="none" xmlns="http://www.w3.org/2000/svg">
<path d="M128.387 38.3843C134.393 48.1056 136.983 58.5668 136.403 67.5683C135.822 76.5752 132.098 83.9423 125.664 87.9175C119.23 91.8926 110.976 91.9256 102.661 88.4146C94.351 84.9058 86.1549 77.908 80.1489 68.1866C74.1429 58.4652 71.5525 48.0041 72.1332 39.0026C72.7143 29.9956 76.4376 22.6285 82.8718 18.6534C89.3059 14.6783 97.5604 14.6453 105.875 18.1562C114.185 21.665 122.381 28.6629 128.387 38.3843Z" stroke="#FFA300" stroke-width="4"/>
<path d="M193.387 67.187C199.393 57.4656 201.983 47.0045 201.403 38.003C200.822 28.996 197.098 21.6289 190.664 17.6538C184.23 13.6787 175.976 13.6457 167.661 17.1567C159.351 20.6655 151.155 27.6633 145.149 37.3847C139.143 47.1061 136.552 57.5672 137.133 66.5687C137.714 75.5757 141.438 82.9428 147.872 86.9179C154.306 90.893 162.56 90.926 170.875 87.4151C179.185 83.9063 187.381 76.9084 193.387 67.187Z" stroke="#FFA300" stroke-width="4"/>
<path d="M103.5 88C94.6667 90 63.7 89.8 50.5 77C37.3 64.2 12 56.3333 1 54" stroke="#FFA300" stroke-width="3"/>
<path d="M276.449 57.9279C267.678 55.6708 236.719 54.9663 223.151 67.3754C209.582 79.7844 184.063 86.9088 173 88.9199" stroke="#FFA300" stroke-width="3"/>
</svg>
